<?xml version="1.0" ?><svg viewBox="0 0 32 32" xmlns="http://www.w3.org/2000/svg"><title/><g data-name="book, education, study, knowledge, literature, textbook, read, page, learning, information, text" id="book_education_study_knowledge_literature_textbook_read_page_learning_information_text"><path d="M21,6H11a1,1,0,0,0-1,1v6a1,1,0,0,0,1,1H21a1,1,0,0,0,1-1V7A1,1,0,0,0,21,6Zm-1,6H12V8h8Z"/><path d="M21,20H11a1,1,0,0,0,0,2H21a1,1,0,0,0,0-2Z"/><path d="M23,2H7A1,1,0,0,0,6,3V25a1,1,0,0,0,1,1H9v3a1,1,0,0,0,.42.81,1,1,0,0,0,.9.14l2.68-.9,2.68.9A1,1,0,0,0,17,29V26h6a3,3,0,0,0,3-3V5A3,3,0,0,0,23,2ZM15,27.61l-1.68-.56a1,1,0,0,0-.64,0L11,27.61V26h4ZM24,23a1,1,0,0,1-1,1H8V4H23a1,1,0,0,1,1,1Z"/></g></svg>